<svg xmlns="http://www.w3.org/2000/svg" viewBox="0 0 120 340" width="60" height="170">
  <defs>
    <marker id="a" viewBox="0 0 10 10" refX="5" refY="5" markerWidth="5" markerHeight="5" orient="auto">
      <path d="M0 1L5 5L0 9" fill="none" stroke="#000" stroke-width="1.5" stroke-linejoin="round"/>
    </marker>
  </defs>

  <!-- Rails -->
  <line x1="20" y1="20" x2="20" y2="320" stroke="#000" stroke-width="2"/>
  <line x1="60" y1="20" x2="60" y2="320" stroke="#000" stroke-width="2"/>

  <!-- Rung k -->
  <line x1="20" y1="40" x2="60" y2="40" stroke="#000" stroke-width="2"/>
  <!-- Rung k-1 -->
  <line x1="20" y1="80" x2="60" y2="80" stroke="#000" stroke-width="2"/>

  <!-- Dots above fog -->
  <circle cx="40" cy="110" r="1.5" fill="#000"/>
  <circle cx="40" cy="125" r="1.5" fill="#000"/>
  <circle cx="40" cy="140" r="1.5" fill="#000"/>

  <!-- Rung t+1 -->
  <line x1="20" y1="170" x2="60" y2="170" stroke="#000" stroke-width="2"/>
  <!-- Rung t (fog) -->
  <line x1="20" y1="210" x2="60" y2="210" stroke="#000" stroke-width="3"/>
  <!-- Rung t-1 -->
  <line x1="20" y1="250" x2="60" y2="250" stroke="#000" stroke-width="2"/>

  <!-- Dots below fog -->
  <circle cx="40" cy="275" r="1.5" fill="#000"/>
  <circle cx="40" cy="290" r="1.5" fill="#000"/>

  <!-- Rung 1 -->
  <line x1="20" y1="310" x2="60" y2="310" stroke="#000" stroke-width="2"/>

  <!-- Climb: straight arrow top to fog -->
  <line x1="90" y1="40" x2="90" y2="203" stroke="#000" stroke-width="1.5" marker-end="url(#a)"/>

  <!-- Pair: curved arrow fog to bottom -->
  <path d="M90 217 C108 260 108 290 90 312" fill="none" stroke="#000" stroke-width="1.5" stroke-dasharray="4 3" marker-end="url(#a)"/>
</svg>